<svg version="1.1" id="Layer_1" xmlns="http://www.w3.org/2000/svg" xmlns:xlink="http://www.w3.org/1999/xlink" x="0px" y="0px"
	 width="100%" viewBox="0 0 500 500" enable-background="new 0 0 500 500" xml:space="preserve">
<path fill="#050b19" opacity="1.000000" stroke="none"
	d="
M334.000000,501.000000
	C222.666687,501.000000 111.833389,501.000000 1.000059,501.000000
	C1.000040,334.333405 1.000040,167.666794 1.000020,1.000149
	C167.666565,1.000099 334.333130,1.000099 500.999756,1.000050
	C500.999847,167.666519 500.999847,334.333038 500.999939,500.999786
	C445.500000,501.000000 390.000000,501.000000 334.000000,501.000000
M285.287323,393.838715
	C286.806305,397.432068 288.325317,401.025421 289.903870,404.759735
	C274.385834,406.080322 244.524231,397.312042 231.266998,387.687347
	C244.385086,368.960876 242.427841,349.203766 233.567200,329.918060
	C222.937805,306.782471 205.420746,289.968658 182.369293,278.873291
	C170.041275,272.939453 157.273468,269.295532 143.560989,268.920807
	C123.773651,268.380127 112.033043,278.334686 109.651062,297.809662
	C107.464249,315.688904 111.374512,332.696777 118.147568,348.937622
	C126.539841,369.061157 139.440720,385.926147 157.074600,399.170532
	C171.302780,409.856964 195.947556,412.069702 211.519653,403.455048
	C212.784180,402.755493 215.143524,402.589996 216.271072,403.309509
	C228.706589,411.244720 241.951355,417.380920 256.224731,421.019775
	C280.938782,427.320404 305.232574,428.392548 328.037415,414.081421
	C337.477081,408.157623 346.603241,401.900208 354.377167,392.989441
	C369.185852,377.853424 381.339325,360.970428 387.949005,340.625427
	C392.713196,325.960999 395.598694,311.024628 392.959747,295.472290
	C390.254944,279.531799 379.458008,269.756805 363.907623,269.044983
	C353.986877,268.590912 344.526031,270.507782 336.023651,275.315948
	C303.903870,293.480133 285.762573,321.546600 280.135925,357.597229
	C278.257629,369.631989 279.769440,381.833344 285.287323,393.838715
M306.398773,187.318451
	C306.700653,158.386154 299.787537,131.647339 282.190735,108.207161
	C276.124390,100.126396 268.930176,93.501389 258.590027,90.838921
	C258.590027,153.700378 258.590027,216.136856 258.590027,278.686951
	C267.102661,276.645325 276.747192,268.745392 283.338196,259.707153
	C298.896240,238.372299 305.592041,214.275833 306.398773,187.318451
M234.780899,91.953972
	C221.221222,97.087135 213.280670,108.346573 206.883224,120.080605
	C188.648682,153.525955 186.187317,188.842194 196.568924,225.362900
	C201.662628,243.281647 210.790863,258.586212 224.540619,270.993134
	C228.469437,274.538239 233.532394,276.826385 239.073517,280.320343
	C239.073517,216.148560 239.073517,153.654495 239.073517,90.762970
	C237.711838,91.128616 236.643219,91.415573 234.780899,91.953972
z"/>
<path fill="#985BF8" opacity="1.000000" stroke="none"
	d="
M353.830597,393.261383
	C346.603241,401.900208 337.477081,408.157623 328.037415,414.081421
	C305.232574,428.392548 280.938782,427.320404 256.224731,421.019775
	C241.951355,417.380920 228.706589,411.244720 216.271072,403.309509
	C215.143524,402.589996 212.784180,402.755493 211.519653,403.455048
	C195.947556,412.069702 171.302780,409.856964 157.074600,399.170532
	C139.440720,385.926147 126.539841,369.061157 118.147568,348.937622
	C111.374512,332.696777 107.464249,315.688904 109.651062,297.809662
	C112.033043,278.334686 123.773651,268.380127 143.560989,268.920807
	C157.273468,269.295532 170.041275,272.939453 182.369293,278.873291
	C205.420746,289.968658 222.937805,306.782471 233.567200,329.918060
	C242.427841,349.203766 244.385086,368.960876 231.266998,387.687347
	C244.524231,397.312042 274.385834,406.080322 289.903870,404.759735
	C288.325317,401.025421 286.806305,397.432068 285.708618,393.497375
	C308.696808,393.191193 331.263702,393.226288 353.830597,393.261383
z"/>
<path fill="#BCCA59" opacity="1.000000" stroke="none"
	d="
M354.103882,393.125427
	C331.263702,393.226288 308.696808,393.191193 285.675751,393.150360
	C279.769440,381.833344 278.257629,369.631989 280.135925,357.597229
	C285.762573,321.546600 303.903870,293.480133 336.023651,275.315948
	C344.526031,270.507782 353.986877,268.590912 363.907623,269.044983
	C379.458008,269.756805 390.254944,279.531799 392.959747,295.472290
	C395.598694,311.024628 392.713196,325.960999 387.949005,340.625427
	C381.339325,360.970428 369.185852,377.853424 354.103882,393.125427
z"/>
<path fill="#02CED9" opacity="1.000000" stroke="none"
	d="
M306.397339,187.774841
	C305.592041,214.275833 298.896240,238.372299 283.338196,259.707153
	C276.747192,268.745392 267.102661,276.645325 258.590027,278.686951
	C258.590027,216.136856 258.590027,153.700378 258.590027,90.838921
	C268.930176,93.501389 276.124390,100.126396 282.190735,108.207161
	C299.787537,131.647339 306.700653,158.386154 306.397339,187.774841
z"/>
<path fill="#02CFDA" opacity="1.000000" stroke="none"
	d="
M235.177750,91.828247
	C236.643219,91.415573 237.711838,91.128616 239.073517,90.762970
	C239.073517,153.654495 239.073517,216.148560 239.073517,280.320343
	C233.532394,276.826385 228.469437,274.538239 224.540619,270.993134
	C210.790863,258.586212 201.662628,243.281647 196.568924,225.362900
	C186.187317,188.842194 188.648682,153.525955 206.883224,120.080605
	C213.280670,108.346573 221.221222,97.087135 235.177750,91.828247
z"/>
</svg>
