<svg xmlns="http://www.w3.org/2000/svg" width="1781" height="500" viewBox="0 0 1781 500" version="1.1"><path d="M 1339.500 199.646 C 1326.019 201.818, 1313.395 207.701, 1305.697 215.398 C 1290.609 230.486, 1290.533 256.616, 1305.538 269.824 C 1312.950 276.349, 1322.648 280.522, 1342 285.515 C 1368.941 292.467, 1374 295.647, 1374 305.632 C 1374 310.374, 1373.588 311.451, 1370.436 314.939 C 1365.432 320.478, 1359.566 322.500, 1348.500 322.500 C 1340.623 322.500, 1338.774 322.143, 1333.677 319.641 C 1326.970 316.347, 1322.509 310.974, 1321.494 304.963 L 1320.824 301 1306.079 301 C 1297.969 301, 1291.110 301.223, 1290.837 301.496 C 1289.622 302.711, 1292.371 316.078, 1295.003 321.759 C 1301.028 334.761, 1313.169 343.735, 1329.697 347.403 C 1340.162 349.725, 1360.507 349.556, 1370.244 347.065 C 1394.745 340.799, 1406.942 325.715, 1405.794 303.098 C 1404.669 280.947, 1391.600 269.643, 1357.140 261.017 C 1332.672 254.892, 1327 251.316, 1327 242.013 C 1327 236.135, 1329.945 231.485, 1335.500 228.589 C 1340.974 225.736, 1353.950 225.158, 1360.878 227.459 C 1366.890 229.456, 1372.589 235.292, 1373.555 240.440 L 1374.223 244 1389.250 244 L 1404.278 244 1403.724 237.894 C 1402.221 221.316, 1388.318 206.737, 1368.955 201.433 C 1363.367 199.902, 1344.876 198.780, 1339.500 199.646 M 491 273.923 L 491 347 507 347 L 523 347 523 321.500 L 523 296 533.876 296 L 544.752 296 558.239 321.250 L 571.726 346.500 588.979 346.774 C 604.692 347.024, 606.176 346.900, 605.597 345.392 C 605.248 344.482, 598.444 331.797, 590.478 317.204 C 582.512 302.611, 576.108 290.576, 576.247 290.459 C 576.386 290.342, 578.463 289.255, 580.863 288.045 C 593.753 281.543, 601.404 266.757, 601.327 248.500 C 601.232 225.850, 589.948 210.589, 568 203.429 C 563.236 201.874, 557.714 201.581, 526.750 201.240 L 491 200.845 491 273.923 M 934.667 201.667 C 934.300 202.033, 934 214.271, 934 228.862 L 934 255.392 931.168 250.926 C 925.532 242.039, 917.350 237.248, 906.218 236.316 C 893.832 235.280, 882.290 239.579, 873.284 248.586 C 863.199 258.670, 858.641 272.340, 858.641 292.500 C 858.641 313.545, 863.774 327.946, 874.968 338.310 C 883.497 346.206, 889.628 348.428, 903 348.468 C 913.099 348.499, 913.743 348.368, 919.852 345.056 C 925.575 341.954, 929.189 338.376, 933.691 331.357 C 934.665 329.838, 934.893 331.093, 934.941 338.250 L 935 347 950 347 L 965 347 965 274 L 965 201 950.167 201 C 942.008 201, 935.033 201.300, 934.667 201.667 M 1737 228.696 L 1737 256.392 1734.130 251.946 C 1727.895 242.287, 1719.913 237.384, 1708.727 236.339 C 1686.761 234.288, 1668.117 249.396, 1662.626 273.697 C 1660.295 284.015, 1660.449 302.527, 1662.948 312.297 C 1667.921 331.741, 1679.267 344.284, 1695.209 347.961 C 1711.009 351.606, 1725.746 346.498, 1733.750 334.604 L 1737 329.774 1737 338.387 L 1737 347 1752.500 347 L 1768 347 1768 274 L 1768 201 1752.500 201 L 1737 201 1737 228.696 M 523 248.500 L 523 270 537.374 270 C 552.842 270, 558.349 268.858, 562.853 264.716 C 571.041 257.188, 571.060 240.901, 562.890 233.520 C 557.380 228.541, 550.980 227, 535.818 227 L 523 227 523 248.500 M 654.250 237.447 C 640.042 240.692, 628.635 249.144, 623.458 260.263 C 621.378 264.731, 620.356 268.808, 621.250 269.074 C 621.388 269.115, 627.714 269.693, 635.308 270.357 L 649.117 271.565 651.270 267.733 C 654.154 262.602, 658.788 259.920, 665.879 259.277 C 677.144 258.256, 683.390 262.478, 683.459 271.160 C 683.520 278.729, 681.918 279.574, 662.933 281.980 C 654.370 283.065, 644.470 284.847, 640.933 285.940 C 623.557 291.310, 616.079 301.844, 617.213 319.354 C 618.032 332.012, 623.813 340.675, 634.914 345.880 C 640.007 348.269, 641.602 348.500, 653 348.500 C 668.404 348.500, 673.326 346.706, 681.020 338.288 L 686 332.839 686 339.919 L 686 347 700.541 347 L 715.082 347 714.791 304.750 L 714.500 262.500 711.850 257.500 C 704.727 244.063, 691.629 237.316, 671 236.457 C 664.009 236.166, 658.412 236.497, 654.250 237.447 M 791.746 237.022 C 782.585 239.336, 771.690 247.652, 769.364 254.104 C 768.731 255.860, 768.366 253.962, 768 247 L 767.500 237.500 753 237.500 L 738.500 237.500 738.241 292.250 L 737.983 347 753.491 347 L 769 347 769 313.149 C 769 277.385, 769.231 275.252, 773.772 269.141 C 780.124 260.593, 796.223 259.775, 803.212 267.645 C 807.752 272.758, 808 275.053, 808 311.968 L 808 347 823.500 347 L 839 347 838.976 308.250 C 838.961 285.385, 838.530 267.673, 837.924 265.042 C 833.981 247.931, 821.065 237.157, 803.609 236.417 C 799.149 236.228, 793.811 236.500, 791.746 237.022 M 1025.411 237.484 C 1012.848 240.217, 1000.697 248.563, 993.933 259.104 C 992.201 261.804, 989.632 267.497, 988.225 271.756 C 986.030 278.400, 985.658 281.347, 985.603 292.500 C 985.532 307.020, 986.854 313.100, 992.339 323.487 C 1001.153 340.181, 1017.533 349.228, 1039 349.261 C 1055.872 349.286, 1066.922 345.035, 1077.747 334.354 C 1089.006 323.247, 1093.642 309.262, 1092.748 289.110 C 1091.987 271.974, 1087.208 260.237, 1076.833 250.024 C 1065.046 238.422, 1044.324 233.369, 1025.411 237.484 M 1162.870 237.500 C 1155.440 239.892, 1148.874 244.895, 1145.296 250.890 L 1142.079 256.280 1141.789 246.890 L 1141.500 237.500 1127 237.500 L 1112.500 237.500 1112.241 292.250 L 1111.983 347 1127.491 347 L 1143 347 1143 312.649 C 1143 289.628, 1143.375 277.177, 1144.138 274.899 C 1149.003 260.370, 1165.516 257.327, 1174.408 269.322 C 1176.430 272.049, 1176.510 273.401, 1176.796 309.572 L 1177.091 347 1192.046 347 L 1207 347 1207 311.212 C 1207 276.085, 1207.042 275.342, 1209.250 270.970 C 1212.313 264.907, 1216.903 262, 1223.413 262 C 1229.610 262, 1234.653 264.462, 1237.750 268.999 C 1239.984 272.273, 1240 272.556, 1240 309.648 L 1240 347 1256 347 L 1272 347 1271.969 310.750 C 1271.927 261.500, 1271.098 256.364, 1261.534 246.140 C 1254.769 238.908, 1248.819 236.588, 1237 236.574 C 1229.467 236.566, 1226.331 237.030, 1221.853 238.815 C 1215.035 241.534, 1207.914 247.575, 1205.300 252.858 L 1203.379 256.742 1200.555 251.348 C 1197.516 245.544, 1192.463 240.927, 1186.356 238.375 C 1180.949 236.116, 1168.598 235.656, 1162.870 237.500 M 1461.411 237.484 C 1446.737 240.677, 1433.798 250.901, 1427.411 264.350 C 1414.216 292.135, 1422.587 328.164, 1445.427 341.895 C 1453.787 346.920, 1462.606 349.100, 1475 349.206 C 1491.649 349.349, 1504.027 345.276, 1513.885 336.414 C 1519.004 331.811, 1525 321.603, 1525 317.490 C 1525 315.443, 1524.401 315.257, 1515.846 314.650 C 1503.064 313.742, 1496 313.840, 1496 314.923 C 1496 316.910, 1490.377 322.378, 1486.541 324.120 C 1481.923 326.218, 1473.566 326.549, 1467.922 324.859 C 1459.871 322.446, 1453.600 314.654, 1452.345 305.503 L 1451.728 301 1488.864 301 L 1526 301 1525.985 291.250 C 1525.959 274.071, 1521.093 260.282, 1511.640 250.600 C 1499.866 238.539, 1480.182 233.400, 1461.411 237.484 M 1579.191 238.025 C 1569.489 240.566, 1563.343 244.048, 1556.525 250.865 C 1545.335 262.054, 1540.370 277.015, 1541.252 296.890 C 1541.803 309.307, 1543.938 317.100, 1549.291 326.234 C 1555.165 336.256, 1566.422 344.333, 1579.113 347.631 C 1587.526 349.816, 1603.474 349.816, 1611.887 347.631 C 1628.390 343.343, 1641.598 331.478, 1644.422 318.404 L 1645.091 315.308 1635.296 314.659 C 1617.585 313.486, 1616.673 313.591, 1614.637 317.038 C 1611.399 322.519, 1605.876 325.282, 1597.196 325.764 C 1590.201 326.151, 1589.001 325.927, 1584.015 323.301 C 1577.251 319.737, 1572.938 313.410, 1572.227 306.007 L 1571.748 301.025 1608.624 300.762 L 1645.500 300.500 1645.350 289.758 C 1645.101 271.949, 1640.105 259.118, 1629.524 249.111 C 1617.404 237.649, 1597.424 233.248, 1579.191 238.025 M 1031.500 261.400 C 1027.035 263.368, 1023.016 267.828, 1020.143 274 C 1017.007 280.739, 1016.008 295.612, 1018.046 305.215 C 1020.619 317.343, 1028.601 324.952, 1038.782 324.984 C 1045.492 325.004, 1049.711 323.232, 1053.663 318.731 C 1058.900 312.766, 1061.264 305.026, 1061.368 293.500 C 1061.473 281.843, 1059.636 274.558, 1054.964 268.110 C 1049.807 260.991, 1039.268 257.977, 1031.500 261.400 M 1464.204 262.076 C 1459.516 264.453, 1455.913 268.571, 1453.531 274.272 C 1450.577 281.341, 1449.508 281, 1474.611 281 L 1497.223 281 1496.526 277.250 C 1495.486 271.652, 1492.135 266.365, 1487.659 263.264 C 1484.311 260.944, 1482.453 260.452, 1476.086 260.198 C 1469.875 259.952, 1467.721 260.292, 1464.204 262.076 M 1584.500 261.659 C 1577.815 265.177, 1572.078 273.035, 1572.022 278.750 L 1572 281 1594 281 L 1616 281 1616 277.950 C 1616 272.074, 1611.186 265.183, 1604.790 261.903 C 1600.086 259.490, 1588.877 259.356, 1584.500 261.659 M 905 262.118 C 901.540 263.491, 896.183 268.805, 894.007 273.025 C 888.798 283.125, 888.827 301.137, 894.070 311.790 C 898.240 320.266, 902.805 323.333, 911.889 323.765 C 917.350 324.024, 919.196 323.676, 922.500 321.761 C 939.606 311.851, 939.059 271.500, 921.704 263.099 C 917.052 260.847, 909.346 260.394, 905 262.118 M 1707.007 262.593 C 1699.542 265.830, 1694.801 273.275, 1692.964 284.646 C 1690.927 297.252, 1693.702 310.108, 1700.004 317.267 C 1704.823 322.742, 1709.101 324.378, 1717.091 323.800 C 1724.538 323.261, 1729.260 319.714, 1733.500 311.472 C 1736.383 305.869, 1736.500 305.131, 1736.500 292.571 C 1736.500 281.047, 1736.228 278.910, 1734.201 274.512 C 1732.937 271.769, 1730.912 268.447, 1729.701 267.131 C 1724.555 261.533, 1714.218 259.466, 1707.007 262.593 M 671.500 300.261 C 655.564 303.392, 653.808 303.992, 650.310 307.490 C 647.447 310.353, 647 311.474, 647 315.796 C 647 320.232, 647.384 321.130, 650.419 323.795 C 659.009 331.337, 676.593 327.599, 681.953 317.091 C 684.374 312.347, 684.982 297.884, 682.750 298.148 C 682.063 298.229, 677 299.180, 671.500 300.261" stroke="none" fill="#ffffff" fill-rule="evenodd"/><path d="M 348.452 269.333 C 326.040 275.061, 305.839 293.330, 290.216 322 C 279.895 340.939, 276.562 361.283, 280.588 380.772 C 283.164 393.245, 278.925 392, 318.813 392 L 353.556 392 358.186 386.750 C 375.660 366.938, 384.603 350.405, 389.965 328 C 396.778 299.532, 391.036 277.994, 374.766 270.995 C 368.378 268.247, 355.807 267.453, 348.452 269.333" stroke="none" fill="#bccc5a" fill-rule="evenodd"/><path d="M 236.745 89.730 C 237.720 90.420, 238.047 110.990, 238.253 184.556 L 238.516 278.500 238.508 184.083 C 238.501 101.010, 238.320 89.617, 237 89.257 C 235.895 88.955, 235.828 89.080, 236.745 89.730 M 189.365 183.500 C 189.368 189, 189.536 191.122, 189.738 188.216 C 189.941 185.311, 189.939 180.811, 189.734 178.216 C 189.528 175.622, 189.363 178, 189.365 183.500 M 305.370 184 C 305.370 189.775, 305.535 192.137, 305.737 189.250 C 305.939 186.363, 305.939 181.637, 305.737 178.750 C 305.535 175.863, 305.370 178.225, 305.370 184 M 136 268.101 C 123.712 269.449, 114.010 276.709, 110.304 287.329 C 108.897 291.361, 108.500 295.585, 108.500 306.500 C 108.500 318.669, 108.874 321.939, 111.358 331.500 C 114.692 344.330, 121.701 359.782, 128.368 369 C 130.954 372.575, 134.137 377.112, 135.441 379.082 C 138.259 383.338, 151.213 395.224, 157.817 399.612 C 171.904 408.974, 195.233 410.794, 208.984 403.603 L 213.549 401.216 216.025 403.264 C 219.636 406.252, 239.223 415.336, 248.500 418.326 C 262.624 422.878, 271.550 424.305, 286 424.323 C 305.414 424.346, 314.940 421.400, 332.488 409.945 C 340.210 404.903, 352.998 394.199, 352.999 392.775 C 353 392.376, 337.320 391.926, 318.155 391.775 L 283.310 391.500 284.766 395 C 285.567 396.925, 286.888 399.794, 287.702 401.376 L 289.182 404.252 282.341 403.540 C 266.953 401.936, 252.806 397.904, 239.352 391.287 L 230.204 386.787 232.558 383.319 C 237.481 376.065, 239.348 369.228, 239.337 358.500 C 239.324 346.074, 237.415 338.285, 231.493 326.500 C 220.340 304.304, 204.103 288.609, 180.978 277.673 C 163.827 269.561, 149.837 266.584, 136 268.101" stroke="none" fill="#995cf9" fill-rule="evenodd"/><path d="M 230.350 92.513 C 224.307 95.524, 219.774 99.872, 211.785 110.318 C 197.721 128.709, 190.004 154.675, 190.001 183.619 C 189.999 211.022, 196.717 235.279, 209.621 254.460 C 216.410 264.552, 228.527 275.208, 235.750 277.440 L 238 278.135 238 184.067 C 238 107.415, 237.759 90, 236.696 90 C 235.979 90, 233.124 91.131, 230.350 92.513 M 257 184.067 L 257 278.135 259.250 277.464 C 273.359 273.255, 290.137 251.734, 298.513 227.102 C 307.165 201.661, 307.104 164.108, 298.371 139.801 C 290.276 117.271, 275.618 97.194, 263.458 91.982 C 260.915 90.892, 258.421 90, 257.917 90 C 257.367 90, 257 127.692, 257 184.067" stroke="none" fill="#05ced9" fill-rule="evenodd"/><path d="" stroke="none" fill="#f4f6ea" fill-rule="evenodd"/></svg>
